<svg xmlns="http://www.w3.org/2000/svg" width="1600" height="900" viewBox="0 0 1600 900"><rect width="1600" height="900" fill="#16324f"/><polygon points="0,0 500,0 180,240" fill="#16324f" opacity="0.82"/><polygon points="500,0 900,0 640,220" fill="#245c7a" opacity="0.88"/><polygon points="900,0 1600,0 1180,260" fill="#3aa6b9" opacity="0.94"/><polygon points="0,0 180,240 0,520" fill="#8de0d2" opacity="0.82"/><polygon points="180,240 640,220 380,520" fill="#d7f7ff" opacity="0.88"/><polygon points="640,220 1180,260 860,540" fill="#16324f" opacity="0.94"/><polygon points="1180,260 1600,0 1600,520" fill="#245c7a" opacity="0.82"/><polygon points="1180,260 1600,520 1320,580" fill="#3aa6b9" opacity="0.88"/><polygon points="0,520 380,520 160,900" fill="#8de0d2" opacity="0.94"/><polygon points="380,520 860,540 620,900" fill="#d7f7ff" opacity="0.82"/><polygon points="860,540 1320,580 1060,900" fill="#16324f" opacity="0.88"/><polygon points="1320,580 1600,520 1600,900" fill="#245c7a" opacity="0.94"/><polygon points="160,900 620,900 0,900" fill="#3aa6b9" opacity="0.82"/><polygon points="620,900 1060,900 1600,900" fill="#8de0d2" opacity="0.88"/></svg>